<svg width="56" height="56" viewBox="0 0 56 56" fill="none" xmlns="http://www.w3.org/2000/svg">
<path d="M0 8C0 3.58172 3.58172 0 8 0H48C52.4183 0 56 3.58172 56 8V48C56 52.4183 52.4183 56 48 56H8C3.58172 56 0 52.4183 0 48V8Z" fill="#2563EB"/>
<path d="M39.3335 21.7067V18.6667C39.3335 17.2 38.1335 16 36.6668 16H18.0002C16.5202 16 15.3335 17.2 15.3335 18.6667V37.3333C15.3335 38.8 16.5202 40 18.0002 40H36.6668C38.1335 40 39.3335 38.8 39.3335 37.3333V34.2933C40.1202 33.8267 40.6668 32.9867 40.6668 32V24C40.6668 23.0133 40.1202 22.1733 39.3335 21.7067ZM38.0002 24V32H28.6668V24H38.0002ZM18.0002 37.3333V18.6667H36.6668V21.3333H28.6668C27.2002 21.3333 26.0002 22.5333 26.0002 24V32C26.0002 33.4667 27.2002 34.6667 28.6668 34.6667H36.6668V37.3333H18.0002Z" fill="white"/>
<path d="M32.6668 30C33.7714 30 34.6668 29.1046 34.6668 28C34.6668 26.8954 33.7714 26 32.6668 26C31.5623 26 30.6668 26.8954 30.6668 28C30.6668 29.1046 31.5623 30 32.6668 30Z" fill="white"/>
</svg>
