<svg width="24" height="25" viewBox="0 0 24 25" fill="none" xmlns="http://www.w3.org/2000/svg">
<path d="M19.4322 13.2245C19.4722 12.9045 19.5022 12.5845 19.5022 12.2445C19.5022 11.9045 19.4722 11.5845 19.4322 11.2645L21.5422 9.61451C21.7322 9.46451 21.7822 9.19451 21.6622 8.97451L19.6622 5.51451C19.5722 5.35451 19.4022 5.26451 19.2222 5.26451C19.1622 5.26451 19.1022 5.27451 19.0522 5.29451L16.5622 6.29451C16.0422 5.89451 15.4822 5.56451 14.8722 5.31451L14.4922 2.66451C14.4622 2.42451 14.2522 2.24451 14.0022 2.24451H10.0022C9.75216 2.24451 9.54216 2.42451 9.51216 2.66451L9.13216 5.31451C8.52216 5.56451 7.96216 5.90451 7.44216 6.29451L4.95216 5.29451C4.89216 5.27451 4.83216 5.26451 4.77216 5.26451C4.60216 5.26451 4.43216 5.35451 4.34216 5.51451L2.34216 8.97451C2.21216 9.19451 2.27216 9.46451 2.46216 9.61451L4.57216 11.2645C4.53216 11.5845 4.50216 11.9145 4.50216 12.2445C4.50216 12.5745 4.53216 12.9045 4.57216 13.2245L2.46216 14.8745C2.27216 15.0245 2.22216 15.2945 2.34216 15.5145L4.34216 18.9745C4.43216 19.1345 4.60216 19.2245 4.78216 19.2245C4.84216 19.2245 4.90216 19.2145 4.95216 19.1945L7.44216 18.1945C7.96216 18.5945 8.52216 18.9245 9.13216 19.1745L9.51216 21.8245C9.54216 22.0645 9.75216 22.2445 10.0022 22.2445H14.0022C14.2522 22.2445 14.4622 22.0645 14.4922 21.8245L14.8722 19.1745C15.4822 18.9245 16.0422 18.5845 16.5622 18.1945L19.0522 19.1945C19.1122 19.2145 19.1722 19.2245 19.2322 19.2245C19.4022 19.2245 19.5722 19.1345 19.6622 18.9745L21.6622 15.5145C21.7822 15.2945 21.7322 15.0245 21.5422 14.8745L19.4322 13.2245ZM17.4522 11.5145C17.4922 11.8245 17.5022 12.0345 17.5022 12.2445C17.5022 12.4545 17.4822 12.6745 17.4522 12.9745L17.3122 14.1045L18.2022 14.8045L19.2822 15.6445L18.5822 16.8545L17.3122 16.3445L16.2722 15.9245L15.3722 16.6045C14.9422 16.9245 14.5322 17.1645 14.1222 17.3345L13.0622 17.7645L12.9022 18.8945L12.7022 20.2445H11.3022L10.9522 17.7645L9.89216 17.3345C9.46216 17.1545 9.06216 16.9245 8.66216 16.6245L7.75216 15.9245L6.69216 16.3545L5.42216 16.8645L4.72216 15.6545L5.80216 14.8145L6.69216 14.1145L6.55216 12.9845C6.52216 12.6745 6.50216 12.4445 6.50216 12.2445C6.50216 12.0445 6.52216 11.8145 6.55216 11.5145L6.69216 10.3845L5.80216 9.68451L4.72216 8.84451L5.42216 7.63451L6.69216 8.14451L7.73216 8.56451L8.63216 7.88451C9.06216 7.56451 9.47216 7.32451 9.88216 7.15451L10.9422 6.72451L11.1022 5.59451L11.3022 4.24451H12.6922L13.0422 6.72451L14.1022 7.15451C14.5322 7.33451 14.9322 7.56451 15.3322 7.86451L16.2422 8.56451L17.3022 8.13451L18.5722 7.62451L19.2722 8.83451L18.2022 9.68451L17.3122 10.3845L17.4522 11.5145ZM12.0022 8.24451C9.79216 8.24451 8.00216 10.0345 8.00216 12.2445C8.00216 14.4545 9.79216 16.2445 12.0022 16.2445C14.2122 16.2445 16.0022 14.4545 16.0022 12.2445C16.0022 10.0345 14.2122 8.24451 12.0022 8.24451ZM12.0022 14.2445C10.9022 14.2445 10.0022 13.3445 10.0022 12.2445C10.0022 11.1445 10.9022 10.2445 12.0022 10.2445C13.1022 10.2445 14.0022 11.1445 14.0022 12.2445C14.0022 13.3445 13.1022 14.2445 12.0022 14.2445Z" fill="#6B7280"/>
</svg>
